# xmcd
#
# Track frame offsets:
#	150
#	65328
#	105863
#	126038
#	140655
#	181141
#	213869
#	244493
#
# Disc length: 3557 seconds
#
# Revision: 0
# Processed by: cddbd v1.5.2PL0 Copyright (c) Steve Scherf et al.
# Submitted via: audiograbber 1.83.01
#
DISCID=6c0de308
DTITLE=Grateful Dead - 93-05-27 Cal Expo Amphitheatre, Sacramento CA
DYEAR=1900
DGENRE=
TTITLE0=Shakedown Street
TTITLE1=The Same Thing
TTITLE2=Dire Wolf
TTITLE3=Beat It On Down the Line
TTITLE4=High Time
TTITLE5=When I Paint My Masterpiece
TTITLE6=Cumberland Blues
TTITLE7=Promised Land
EXTD=
EXTT0=
EXTT1=
EXTT2=
EXTT3=
EXTT4=
EXTT5=
EXTT6=
EXTT7=
PLAYORDER=
